<svg width="24" height="25" viewBox="0 0 24 25" fill="none" xmlns="http://www.w3.org/2000/svg">
<path fill-rule="evenodd" clip-rule="evenodd" d="M3.5 5.89062C3.5 5.36019 3.71071 4.85148 4.08579 4.47641C4.46086 4.10134 4.96957 3.89063 5.5 3.89062H9C9.53043 3.89063 10.0391 4.10134 10.4142 4.47641C10.7893 4.85148 11 5.36019 11 5.89062V9.39062C11 9.92106 10.7893 10.4298 10.4142 10.8048C10.0391 11.1799 9.53043 11.3906 9 11.3906H5.5C4.96957 11.3906 4.46086 11.1799 4.08579 10.8048C3.71071 10.4298 3.5 9.92106 3.5 9.39062V5.89062ZM5.5 5.39062H9C9.13261 5.39062 9.25979 5.4433 9.35355 5.53707C9.44732 5.63084 9.5 5.75802 9.5 5.89062V9.39062C9.5 9.52323 9.44732 9.65041 9.35355 9.74418C9.25979 9.83795 9.13261 9.89062 9 9.89062H5.5C5.36739 9.89062 5.24021 9.83795 5.14645 9.74418C5.05268 9.65041 5 9.52323 5 9.39062V5.89062C5 5.75802 5.05268 5.63084 5.14645 5.53707C5.24021 5.4433 5.36739 5.39062 5.5 5.39062ZM3.5 15.3906C3.5 14.8602 3.71071 14.3515 4.08579 13.9764C4.46086 13.6013 4.96957 13.3906 5.5 13.3906H9C9.53043 13.3906 10.0391 13.6013 10.4142 13.9764C10.7893 14.3515 11 14.8602 11 15.3906V18.8906C11 19.4211 10.7893 19.9298 10.4142 20.3048C10.0391 20.6799 9.53043 20.8906 9 20.8906H5.5C4.96957 20.8906 4.46086 20.6799 4.08579 20.3048C3.71071 19.9298 3.5 19.4211 3.5 18.8906V15.3906ZM5.5 14.8906H9C9.13261 14.8906 9.25979 14.9433 9.35355 15.0371C9.44732 15.1308 9.5 15.258 9.5 15.3906V18.8906C9.5 19.0232 9.44732 19.1504 9.35355 19.2442C9.25979 19.3379 9.13261 19.3906 9 19.3906H5.5C5.36739 19.3906 5.24021 19.3379 5.14645 19.2442C5.05268 19.1504 5 19.0232 5 18.8906V15.3906C5 15.258 5.05268 15.1308 5.14645 15.0371C5.24021 14.9433 5.36739 14.8906 5.5 14.8906ZM15 3.89062C14.4696 3.89063 13.9609 4.10134 13.5858 4.47641C13.2107 4.85148 13 5.36019 13 5.89062V9.39062C13 9.92106 13.2107 10.4298 13.5858 10.8048C13.9609 11.1799 14.4696 11.3906 15 11.3906H18.5C19.0304 11.3906 19.5391 11.1799 19.9142 10.8048C20.2893 10.4298 20.5 9.92106 20.5 9.39062V5.89062C20.5 5.36019 20.2893 4.85148 19.9142 4.47641C19.5391 4.10134 19.0304 3.89063 18.5 3.89062H15ZM18.5 5.39062H15C14.8674 5.39062 14.7402 5.4433 14.6464 5.53707C14.5527 5.63084 14.5 5.75802 14.5 5.89062V9.39062C14.5 9.52323 14.5527 9.65041 14.6464 9.74418C14.7402 9.83795 14.8674 9.89062 15 9.89062H18.5C18.6326 9.89062 18.7598 9.83795 18.8536 9.74418C18.9473 9.65041 19 9.52323 19 9.39062V5.89062C19 5.75802 18.9473 5.63084 18.8536 5.53707C18.7598 5.4433 18.6326 5.39062 18.5 5.39062Z" fill="black"/>
<path d="M14.25 13.3906C13.9185 13.3906 13.6005 13.5223 13.3661 13.7567C13.1317 13.9912 13 14.3091 13 14.6406C13 14.9721 13.1317 15.2901 13.3661 15.5245C13.6005 15.7589 13.9185 15.8906 14.25 15.8906C14.5815 15.8906 14.8995 15.7589 15.1339 15.5245C15.3683 15.2901 15.5 14.9721 15.5 14.6406C15.5 14.3091 15.3683 13.9912 15.1339 13.7567C14.8995 13.5223 14.5815 13.3906 14.25 13.3906ZM13 19.6406C13 19.3091 13.1317 18.9912 13.3661 18.7567C13.6005 18.5223 13.9185 18.3906 14.25 18.3906C14.5815 18.3906 14.8995 18.5223 15.1339 18.7567C15.3683 18.9912 15.5 19.3091 15.5 19.6406C15.5 19.9721 15.3683 20.2901 15.1339 20.5245C14.8995 20.7589 14.5815 20.8906 14.25 20.8906C13.9185 20.8906 13.6005 20.7589 13.3661 20.5245C13.1317 20.2901 13 19.9721 13 19.6406ZM19.25 13.3906C18.9185 13.3906 18.6005 13.5223 18.3661 13.7567C18.1317 13.9912 18 14.3091 18 14.6406C18 14.9721 18.1317 15.2901 18.3661 15.5245C18.6005 15.7589 18.9185 15.8906 19.25 15.8906C19.5815 15.8906 19.8995 15.7589 20.1339 15.5245C20.3683 15.2901 20.5 14.9721 20.5 14.6406C20.5 14.3091 20.3683 13.9912 20.1339 13.7567C19.8995 13.5223 19.5815 13.3906 19.25 13.3906Z" fill="black"/>
</svg>
