<svg width="20" height="19" viewBox="0 0 20 19" fill="none" xmlns="http://www.w3.org/2000/svg">
<g clip-path="url(#clip0_14494_5780)">
<path d="M18.8333 0.575684L11.3281 6.17107L12.7237 2.87353L18.8333 0.575684Z" fill="#E17726" stroke="#E17726" stroke-width="0.25" stroke-linecap="round" stroke-linejoin="round"/>
<path d="M1.52167 0.575684L8.96003 6.22329L7.63123 2.87352L1.52167 0.575684Z" fill="#E27625" stroke="#E27625" stroke-width="0.25" stroke-linecap="round" stroke-linejoin="round"/>
<path d="M16.1311 13.5493L14.1342 16.6231L18.4101 17.8093L19.635 13.6164L16.1311 13.5493Z" fill="#E27625" stroke="#E27625" stroke-width="0.25" stroke-linecap="round" stroke-linejoin="round"/>
<path d="M0.727295 13.6164L1.94475 17.8093L6.21329 16.6231L4.22377 13.5493L0.727295 13.6164Z" fill="#E27625" stroke="#E27625" stroke-width="0.25" stroke-linecap="round" stroke-linejoin="round"/>
<path d="M5.98318 8.35684L4.79541 10.1623L9.02684 10.3563L8.88575 5.76807L5.98318 8.35684Z" fill="#E27625" stroke="#E27625" stroke-width="0.25" stroke-linecap="round" stroke-linejoin="round"/>
<path d="M14.3717 8.35684L11.4245 5.71582L11.3281 10.3563L15.5594 10.1623L14.3717 8.35684Z" fill="#E27625" stroke="#E27625" stroke-width="0.25" stroke-linecap="round" stroke-linejoin="round"/>
<path d="M6.21332 16.6232L8.7744 15.3773L6.56966 13.6465L6.21332 16.6232Z" fill="#E27625" stroke="#E27625" stroke-width="0.25" stroke-linecap="round" stroke-linejoin="round"/>
<path d="M11.5805 15.3773L14.1342 16.6232L13.7853 13.6465L11.5805 15.3773Z" fill="#E27625" stroke="#E27625" stroke-width="0.25" stroke-linecap="round" stroke-linejoin="round"/>
<path d="M14.1342 16.6233L11.5804 15.3774L11.7883 17.0486L11.766 17.7573L14.1342 16.6233Z" fill="#D5BFB2" stroke="#D5BFB2" stroke-width="0.25" stroke-linecap="round" stroke-linejoin="round"/>
<path d="M6.21326 16.6233L8.5888 17.7573L8.57394 17.0486L8.7744 15.3774L6.21326 16.6233Z" fill="#D5BFB2" stroke="#D5BFB2" stroke-width="0.25" stroke-linecap="round" stroke-linejoin="round"/>
<path d="M8.63334 12.5422L6.51019 11.9155L8.00979 11.2217L8.63334 12.5422Z" fill="#233447" stroke="#233447" stroke-width="0.25" stroke-linecap="round" stroke-linejoin="round"/>
<path d="M11.7215 12.5422L12.3451 11.2217L13.8521 11.9155L11.7215 12.5422Z" fill="#233447" stroke="#233447" stroke-width="0.25" stroke-linecap="round" stroke-linejoin="round"/>
<path d="M6.21328 16.6231L6.58442 13.5493L4.22375 13.6165L6.21328 16.6231Z" fill="#CC6228" stroke="#CC6228" stroke-width="0.25" stroke-linecap="round" stroke-linejoin="round"/>
<path d="M13.7704 13.5493L14.1342 16.6231L16.1311 13.6165L13.7704 13.5493Z" fill="#CC6228" stroke="#CC6228" stroke-width="0.25" stroke-linecap="round" stroke-linejoin="round"/>
<path d="M15.5595 10.1626L11.3281 10.3566L11.7215 12.5425L12.3451 11.222L13.8521 11.9158L15.5595 10.1626Z" fill="#CC6228" stroke="#CC6228" stroke-width="0.25" stroke-linecap="round" stroke-linejoin="round"/>
<path d="M6.51024 11.9158L8.00978 11.222L8.63338 12.5425L9.02681 10.3566L4.79541 10.1626L6.51024 11.9158Z" fill="#CC6228" stroke="#CC6228" stroke-width="0.25" stroke-linecap="round" stroke-linejoin="round"/>
<path d="M4.79541 10.1626L6.56964 13.6467L6.51027 11.9158L4.79541 10.1626Z" fill="#E27525" stroke="#E27525" stroke-width="0.25" stroke-linecap="round" stroke-linejoin="round"/>
<path d="M13.8521 11.9158L13.7853 13.6467L15.5595 10.1626L13.8521 11.9158Z" fill="#E27525" stroke="#E27525" stroke-width="0.25" stroke-linecap="round" stroke-linejoin="round"/>
<path d="M9.02685 10.3564L8.63336 12.5424L9.13073 15.1237L9.2421 11.7217L9.02685 10.3564Z" fill="#E27525" stroke="#E27525" stroke-width="0.25" stroke-linecap="round" stroke-linejoin="round"/>
<path d="M11.3281 10.3564L11.1202 11.7143L11.2242 15.1237L11.7216 12.5424L11.3281 10.3564Z" fill="#E27525" stroke="#E27525" stroke-width="0.25" stroke-linecap="round" stroke-linejoin="round"/>
<path d="M11.7216 12.5422L11.2242 15.1235L11.5805 15.3772L13.7853 13.6464L13.8521 11.9155L11.7216 12.5422Z" fill="#F5841F" stroke="#F5841F" stroke-width="0.25" stroke-linecap="round" stroke-linejoin="round"/>
<path d="M6.51019 11.9155L6.56962 13.6464L8.77436 15.3772L9.13071 15.1235L8.63334 12.5422L6.51019 11.9155Z" fill="#F5841F" stroke="#F5841F" stroke-width="0.25" stroke-linecap="round" stroke-linejoin="round"/>
<path d="M11.7661 17.7571L11.7883 17.0483L11.5953 16.8842H8.75954L8.57394 17.0483L8.5888 17.7571L6.21326 16.623L7.04474 17.3094L8.72983 18.4807H11.6176L13.3102 17.3094L14.1342 16.623L11.7661 17.7571Z" fill="#C0AC9D" stroke="#C0AC9D" stroke-width="0.25" stroke-linecap="round" stroke-linejoin="round"/>
<path d="M11.5805 15.3772L11.2241 15.1235H9.13071L8.77437 15.3772L8.57391 17.0484L8.75951 16.8842H11.5953L11.7883 17.0484L11.5805 15.3772Z" fill="#161616" stroke="#161616" stroke-width="0.25" stroke-linecap="round" stroke-linejoin="round"/>
<path d="M19.1524 6.53662L19.7835 3.44798L18.8332 0.575684L11.5805 5.98458L14.3717 8.35699L18.3136 9.5134L19.1822 8.49131L18.8035 8.21524L19.4048 7.6632L18.9446 7.30508L19.5459 6.84252L19.1524 6.53662Z" fill="#763E1A" stroke="#763E1A" stroke-width="0.25" stroke-linecap="round" stroke-linejoin="round"/>
<path d="M0.571411 3.44798L1.20983 6.53662L0.801543 6.84252L1.41027 7.30508L0.950011 7.6632L1.55131 8.21524L1.17271 8.49131L2.04127 9.5134L5.98318 8.35699L8.77438 5.98458L1.52162 0.575684L0.571411 3.44798Z" fill="#763E1A" stroke="#763E1A" stroke-width="0.25" stroke-linecap="round" stroke-linejoin="round"/>
<path d="M18.3136 9.51334L14.3717 8.35693L15.5595 10.1624L13.7853 13.6465L16.1311 13.6166H19.635L18.3136 9.51334Z" fill="#F5841F" stroke="#F5841F" stroke-width="0.25" stroke-linecap="round" stroke-linejoin="round"/>
<path d="M5.98313 8.35693L2.04126 9.51334L0.727295 13.6166H4.22377L6.56959 13.6465L4.79538 10.1624L5.98313 8.35693Z" fill="#F5841F" stroke="#F5841F" stroke-width="0.25" stroke-linecap="round" stroke-linejoin="round"/>
<path d="M11.328 10.3564L11.5804 5.98458L12.7237 2.87354H7.63116L8.77436 5.98458L9.02676 10.3564L9.12328 11.7291L9.13071 15.1237H11.2241L11.2316 11.7291L11.328 10.3564Z" fill="#F5841F" stroke="#F5841F" stroke-width="0.25" stroke-linecap="round" stroke-linejoin="round"/>
</g>
<defs>
<clipPath id="clip0_14494_5780">
<rect width="20" height="19" fill="white"/>
</clipPath>
</defs>
</svg>
